<?xml version="1.0" standalone="no"?>
<!DOCTYPE svg PUBLIC "-//W3C//DTD SVG 20010904//EN"
 "http://www.w3.org/TR/2001/REC-SVG-20010904/DTD/svg10.dtd">
<svg version="1.0" xmlns="http://www.w3.org/2000/svg"
 width="700.000000pt" height="700.000000pt" viewBox="0 0 700.000000 700.000000"
 preserveAspectRatio="xMidYMid meet">
<metadata>
Created by potrace 1.14, written by Peter Selinger 2001-2017
</metadata>
<g transform="translate(0.000000,700.000000) scale(0.100000,-0.100000)"
fill="#000000" stroke="none">
<path d="M748 6984 c-190 -34 -338 -113 -479 -253 -107 -107 -163 -192 -209
-319 -64 -175 -60 6 -60 -2912 0 -2918 -4 -2737 60 -2912 43 -117 101 -209
192 -304 125 -130 250 -204 436 -257 l77 -22 2695 -3 c2962 -3 2776 -6 2951
58 118 43 210 101 305 192 130 125 204 250 257 436 l22 77 3 2695 c3 2962 6
2776 -58 2951 -46 128 -102 213 -209 320 -107 107 -192 163 -319 209 -175 64
8 60 -2921 59 -2225 -1 -2679 -3 -2743 -15z m3033 -1453 c359 -77 673 -273
895 -557 459 -588 422 -1423 -87 -1968 -229 -245 -507 -397 -844 -462 -124
-25 -405 -25 -532 -1 -211 39 -449 140 -617 261 -116 84 -270 237 -351 351
-74 102 -173 294 -209 405 -56 170 -70 270 -70 485 0 221 14 309 75 488 187
550 681 947 1269 1021 89 11 377 -3 471 -23z m-2657 -1588 c34 -694 343 -1306
876 -1739 260 -211 633 -392 955 -463 194 -43 313 -55 525 -55 393 1 717 78
1055 248 643 326 1093 906 1249 1611 21 98 46 294 46 368 0 34 3 86 6 115 l7
52 120 0 120 0 -6 -138 c-31 -688 -313 -1313 -803 -1781 -511 -488 -1170 -740
-1874 -718 -392 13 -713 92 -1065 262 -247 120 -458 269 -669 475 -224 218
-387 443 -521 715 -89 183 -143 328 -189 517 -47 190 -66 320 -73 511 l-6 157
120 0 120 0 7 -137z m536 83 c0 -227 66 -523 165 -741 179 -392 528 -738 914
-905 511 -222 1074 -207 1561 41 401 205 708 544 873 965 65 166 117 410 117
554 0 36 3 82 6 103 l7 37 118 0 119 0 0 -57 c0 -177 -45 -444 -105 -629 -70
-213 -214 -476 -359 -654 -389 -478 -980 -759 -1594 -760 -1098 -1 -2013 868
-2059 1958 l-6 142 121 0 122 0 0 -54z"/>
<path d="M3330 5309 c-765 -95 -1274 -833 -1089 -1577 103 -413 409 -749 817
-896 253 -91 564 -93 824 -6 318 107 588 342 741 646 142 281 167 661 65 969
-144 432 -524 765 -972 850 -102 20 -289 27 -386 14z m-95 -639 c72 -23 195
-87 195 -103 0 -5 -30 -46 -67 -91 -37 -44 -68 -83 -70 -85 -2 -2 -24 7 -50
21 -105 57 -240 75 -309 42 -58 -28 -82 -104 -48 -152 23 -33 74 -55 231 -100
173 -50 244 -85 304 -149 62 -66 83 -130 77 -237 -3 -68 -10 -91 -38 -144
-111 -209 -424 -262 -715 -122 -44 21 -98 54 -119 73 l-40 34 64 79 c35 43 67
83 71 88 4 4 28 -6 53 -24 170 -116 409 -132 461 -29 26 50 19 93 -20 128 -20
17 -38 31 -40 31 -3 0 -75 20 -160 45 -236 68 -320 120 -369 224 -31 67 -30
216 1 284 47 102 129 170 243 202 78 21 252 14 345 -15z m693 -467 l2 -483
225 0 225 0 0 -115 0 -115 -355 0 -355 0 0 600 0 601 128 -3 127 -3 3 -482z"/>
</g>
</svg>
